PathFileType	4	(X/Y/Z)	 s05c0303.trc
DataRate	CameraRate	NumFrames	NumMarkers	Units	OrigDataRate	OrigDataStartFrame	OrigNumFrames
200	200	4	48	mm	200	501	2000
Frame#	Time	racr			lacr			c7			jug			rlel			rdr			llel			ldr			s2			lic			ric			lasi			rasi			rpsi			lpsi			rgt			lgt			rth1			rth2			rth3			rth4			rlfc			rsh1			rsh2			rsh3			rsh4			rlmal			rcal			rtoe			rmt5			rmt1			lth1			lth2			lth4			lth3			llfc			lmfc			lsh1			lsh2			lsh3			lsh4			llmal			lcal			ltoe			lmt5			SBIKE			LBIKE			RBIKE			
		X1	Y1	Z1	X2	Y2	Z2	X3	Y3	Z3	X4	Y4	Z4	X5	Y5	Z5	X6	Y6	Z6	X7	Y7	Z7	X8	Y8	Z8	X9	Y9	Z9	X10	Y10	Z10	X11	Y11	Z11	X12	Y12	Z12	X13	Y13	Z13	X14	Y14	Z14	X15	Y15	Z15	X16	Y16	Z16	X17	Y17	Z17	X18	Y18	Z18	X19	Y19	Z19	X20	Y20	Z20	X21	Y21	Z21	X22	Y22	Z22	X23	Y23	Z23	X24	Y24	Z24	X25	Y25	Z25	X26	Y26	Z26	X27	Y27	Z27	X28	Y28	Z28	X29	Y29	Z29	X30	Y30	Z30	X31	Y31	Z31	X32	Y32	Z32	X33	Y33	Z33	X34	Y34	Z34	X35	Y35	Z35	X36	Y36	Z36	X37	Y37	Z37	X38	Y38	Z38	X39	Y39	Z39	X40	Y40	Z40	X41	Y41	Z41	X42	Y42	Z42	X43	Y43	Z43	X44	Y44	Z44	X45	Y45	Z45	X46	Y46	Z46	X47	Y47	Z47	X48	Y48	Z48	
501	2.5050	708.335383	1318.346759	-100.666227	706.419725	1372.281258	-394.569810	695.683142	1427.263882	-250.694137	658.355888	1264.945664	-263.754176	531.586950	1101.748514	3.295155	687.349022	939.070438	-61.508502	557.775489	1136.688703	-524.488602	694.360935	920.432474	-458.485656	135.237663	1212.477450	-306.708611	297.845298	1228.614340	-428.925582	267.332436	1210.939487	-145.006165	332.707071	1166.664760	-391.952850	312.015232	1149.312079	-170.919977	168.481224	1250.793366	-257.630139	180.417175	1263.426548	-344.262983	197.579892	1081.195765	-138.782001	235.683534	1124.920004	-471.837757	238.936330	973.859728	-114.086318	279.759246	895.001174	-104.282513	276.551731	806.991006	-111.736768	315.759758	903.190576	-107.028707	327.297204	667.127094	-127.282215	271.451747	574.379009	-97.102856	269.959927	486.013136	-107.640353	228.217760	411.029193	-111.450388	299.518421	480.745847	-131.912708	197.547143	280.713981	-119.049160	126.545385	255.496806	-164.806028	417.118466	192.097050	-142.321815	309.458550	185.308012	-83.180692	NaN	NaN	NaN	336.577948	1020.702327	-479.706032	413.445632	984.684192	-468.056286	435.035457	1009.458486	-450.582414	465.243351	910.527100	-468.776386	538.375914	792.874575	-430.857253	512.215924	786.135723	-323.178033	430.028961	740.047294	-458.767991	362.654479	685.484584	-446.475256	275.261247	669.676766	-450.472448	376.019878	660.257084	-419.931960	166.720950	617.125371	-445.622833	101.015011	650.074760	-403.915909	203.696058	373.102450	-387.064212	138.577573	457.211668	-456.068847	-169.041987	900.481461	-269.800699	-43.185291	85.132540	-473.883500	-51.186143	79.856444	-76.345818	
502	2.5100	710.653096	1318.893600	-103.454868	705.278505	1373.432228	-397.226370	696.317162	1428.152523	-253.107794	658.943832	1265.903804	-266.226217	534.812750	1102.760082	4.074083	688.323607	938.578742	-61.848925	557.051052	1136.408067	-524.228172	694.528954	920.399970	-458.331326	135.553780	1212.036918	-303.276882	296.368963	1229.855974	-426.822143	269.968494	1208.683901	-142.926100	332.025881	1167.634081	-390.853292	314.086576	1146.701785	-169.622434	169.838966	1249.167207	-253.718558	180.025445	1263.051041	-340.354473	198.781774	1079.270919	-137.598938	234.810434	1126.452104	-470.056432	237.883772	971.875335	-113.513772	277.100572	892.204718	-103.762579	271.997422	804.172810	-111.702793	313.200651	899.516491	-106.904815	320.204796	663.592838	-127.743156	264.589747	570.821847	-97.471644	263.315357	482.470588	-107.924010	221.736462	407.441358	-111.696001	293.580758	477.283881	-131.943810	191.837034	277.004206	-119.298787	120.769462	252.591861	-164.978926	410.712193	185.808035	-142.544423	302.906171	180.411081	-83.351196	NaN	NaN	NaN	337.807861	1024.253186	-479.086290	415.473100	989.628820	-468.802809	436.742704	1014.519858	-450.947535	467.935772	915.809558	-469.246998	542.959733	799.422361	-432.720653	517.585255	791.546882	-324.892269	434.270426	746.278854	-459.563506	367.169489	691.724573	-447.201192	279.874067	675.671751	-450.596575	380.849252	666.428530	-420.896937	172.146036	622.844110	-445.147297	105.859442	655.018367	-403.362110	211.196897	379.111337	-386.932698	145.347800	462.631963	-455.816617	-168.905389	900.487265	-269.763982	-43.168833	85.144565	-473.880056	-51.134283	79.843516	-76.342065	
503	2.5150	712.941771	1319.320908	-106.491050	704.175851	1374.444508	-399.878840	696.864124	1428.771894	-256.056260	659.468518	1266.641211	-268.988963	537.906328	1103.739384	4.854672	689.208672	938.104885	-62.216331	556.307214	1136.062113	-524.089877	693.958065	921.503777	-460.702999	136.046639	1211.833091	-299.759784	294.867488	1231.381437	-424.724195	272.816093	1206.900518	-140.666778	331.216359	1168.970526	-389.731513	315.933479	1144.993544	-168.655273	170.184203	1248.505648	-249.206766	179.625380	1263.411180	-336.376333	200.152490	1077.790376	-136.193052	233.695821	1128.501713	-468.155397	236.927652	970.208019	-112.894745	274.544958	889.676098	-103.304429	267.570874	801.952051	-111.578502	310.760322	896.216486	-106.717083	313.301172	660.623191	-128.140959	257.710823	567.894543	-97.811223	256.627701	479.474120	-108.281838	215.297306	404.377040	-111.986327	286.926756	474.430420	-132.297689	186.179094	273.918671	-119.423976	114.916847	250.266687	-165.295524	404.070150	179.781463	-142.764725	296.217750	175.724286	-83.591378	NaN	NaN	NaN	338.751557	1028.281053	-478.946955	416.894368	994.683693	-469.001633	437.946790	1019.809654	-451.040949	470.175098	921.401944	-469.744028	547.384079	806.080819	-434.412617	522.683568	797.316531	-326.537292	438.180180	752.987290	-460.559892	371.520973	698.050420	-447.724745	284.134528	681.666226	-450.483704	385.207317	672.708478	-421.841577	177.287644	628.110833	-444.556262	110.527044	659.649786	-402.868542	218.998484	385.045847	-386.802612	152.321729	467.869925	-455.629785	-168.416246	901.441271	-267.712031	-43.143552	85.114133	-473.901005	-51.134782	79.837017	-76.347323	
504	2.5200	715.224581	1319.620024	-109.578019	703.153302	1375.277258	-402.588596	697.470916	1429.215363	-258.704450	659.908296	1267.162494	-271.631573	540.917040	1104.775365	5.557831	689.819240	937.772183	-62.452702	555.658890	1135.661351	-524.044337	694.037917	921.566328	-460.630699	136.505380	1212.252841	-295.618952	293.136593	1233.321509	-422.553188	275.810664	1205.396542	-138.588830	330.312182	1170.691827	-388.619189	317.790523	1143.735214	-167.809716	171.046515	1248.116117	-244.669193	179.418463	1263.821749	-332.033529	201.674822	1076.589704	-134.855208	232.332594	1130.991205	-466.079005	236.272727	969.077466	-111.752363	272.143620	887.602200	-103.044910	263.315862	800.043809	-111.329371	308.551501	893.385246	-106.432314	306.400644	658.234167	-128.493905	251.191870	565.524613	-98.135061	250.101344	477.229071	-108.596973	208.912288	401.883902	-112.296160	280.397608	472.205075	-132.536557	180.438077	271.495615	-119.658563	109.180158	248.827745	-165.521362	397.213040	173.831114	-142.940044	289.292348	171.478378	-83.743914	NaN	NaN	NaN	339.052713	1032.486356	-478.816302	417.749887	999.890107	-469.080501	438.410651	1025.225063	-450.978325	471.992828	927.400529	-469.903692	551.212589	813.258368	-436.216300	528.329004	804.039898	-327.429341	441.766353	759.743801	-461.393418	375.502061	704.454028	-448.290692	288.182666	687.589145	-450.207319	389.607926	678.897021	-422.759762	182.123953	632.720702	-443.446802	114.919092	663.615322	-402.429387	227.224307	390.663522	-386.593312	159.540643	472.700174	-455.487902	-168.254569	901.187685	-267.947891	-43.129974	85.081020	-473.920165	-51.080495	79.711419	-76.421609	
